<?xml version="1.0" encoding="utf-8"?>
<!-- Generator: Adobe Illustrator 23.0.3, SVG Export Plug-In . SVG Version: 6.00 Build 0)  -->
<svg version="1.1" id="Layer_1" xmlns="http://www.w3.org/2000/svg" xmlns:xlink="http://www.w3.org/1999/xlink" x="0px" y="0px"
	 viewBox="0 0 460 267.5" style="enable-background:new 0 0 460 267.5;" xml:space="preserve">
<style type="text/css">
	.st0{fill:#F0F4F5;}
	.st1{fill:#E0E1EB;}
	.st2{fill:none;stroke:#084E8A;stroke-width:0.503;stroke-miterlimit:10;}
	.st3{fill:none;stroke:#084E8A;stroke-width:1.005;stroke-miterlimit:10;}
	.st4{fill:#084E8A;}
	.st5{font-family:'UntitledSans-Medium';}
	.st6{font-size:12px;}
	.st7{letter-spacing:-1;}
	.st8{fill:#231F20;}
	.st9{font-family:'UntitledSans-Light';}
</style>
<polygon class="st0" points="0,0 0,226.9 40.9,267.5 460,267.5 460,0 "/>
<path class="st1" d="M370,37.3h52v46.3h-52V37.3z M285,37.3h85v46.3h-85V37.3z M217,37.3h68v46.3h-68V37.3z M121,37.3h96v46.3h-96
	V37.3z M30,37.3h91v46.3H30V37.3z"/>
<line class="st2" x1="30" y1="129.9" x2="121" y2="129.9"/>
<line class="st2" x1="121" y1="129.9" x2="217" y2="129.9"/>
<line class="st2" x1="217" y1="129.9" x2="285" y2="129.9"/>
<line class="st2" x1="285" y1="129.9" x2="370" y2="129.9"/>
<line class="st2" x1="370" y1="129.9" x2="422" y2="129.9"/>
<line class="st2" x1="30" y1="176.3" x2="121" y2="176.3"/>
<line class="st2" x1="121" y1="176.3" x2="217" y2="176.3"/>
<line class="st2" x1="217" y1="176.3" x2="285" y2="176.3"/>
<line class="st2" x1="285" y1="176.3" x2="370" y2="176.3"/>
<line class="st2" x1="370" y1="176.3" x2="422" y2="176.3"/>
<line class="st3" x1="30" y1="222.6" x2="121" y2="222.6"/>
<line class="st3" x1="121" y1="222.6" x2="217" y2="222.6"/>
<line class="st3" x1="217" y1="222.6" x2="285" y2="222.6"/>
<line class="st3" x1="285" y1="222.6" x2="370" y2="222.6"/>
<line class="st3" x1="370" y1="222.6" x2="422" y2="222.6"/>
<text transform="matrix(1 0 0 1 41 57.5966)"><tspan x="0" y="0" class="st4 st5 st6">Da</tspan><tspan x="15.9" y="0" class="st4 st5 st6">t</tspan><tspan x="20.5" y="0" class="st4 st5 st6">e of </tspan></text>
<text transform="matrix(1 0 0 1 41 72.5966)"><tspan x="0" y="0" class="st4 st5 st6">w</tspan><tspan x="9.6" y="0" class="st4 st5 st6">e</tspan><tspan x="16.5" y="0" class="st4 st5 st6">b</tspan><tspan x="24.2" y="0" class="st4 st5 st6">cast</tspan></text>
<text transform="matrix(1 0 0 1 131.9961 57.5966)"><tspan x="0" y="0" class="st4 st5 st6 st7">T</tspan><tspan x="7.5" y="0" class="st4 st5 st6">opic</tspan></text>
<text transform="matrix(1 0 0 1 249.4043 57.5966)"><tspan x="0" y="0" class="st4 st5 st6">Li</tspan><tspan x="11" y="0" class="st4 st5 st6">v</tspan><tspan x="17.7" y="0" class="st4 st5 st6">e</tspan></text>
<text transform="matrix(1 0 0 1 273.9922 57.5966)" class="st4 st5 st6"> </text>
<text transform="matrix(1 0 0 1 228.9082 72.5966)"><tspan x="0" y="0" class="st4 st5 st6">vi</tspan><tspan x="10.3" y="0" class="st4 st5 st6">e</tspan><tspan x="17.1" y="0" class="st4 st5 st6">w</tspan><tspan x="26.8" y="0" class="st4 st5 st6">ers</tspan></text>
<text transform="matrix(1 0 0 1 302.624 57.5966)"><tspan x="0" y="0" class="st4 st5 st6">R</tspan><tspan x="8.5" y="0" class="st4 st5 st6">e</tspan><tspan x="15.4" y="0" class="st4 st5 st6">co</tspan><tspan x="29.3" y="0" class="st4 st5 st6">r</tspan><tspan x="34.2" y="0" class="st4 st5 st6">d</tspan><tspan x="41.8" y="0" class="st4 st5 st6">e</tspan><tspan x="48.7" y="0" class="st4 st5 st6">d</tspan></text>
<text transform="matrix(1 0 0 1 358.9883 57.5966)" class="st4 st5 st6"> </text>
<text transform="matrix(1 0 0 1 313.9043 72.5966)"><tspan x="0" y="0" class="st4 st5 st6">vi</tspan><tspan x="10.3" y="0" class="st4 st5 st6">e</tspan><tspan x="17.1" y="0" class="st4 st5 st6">w</tspan><tspan x="26.8" y="0" class="st4 st5 st6">ers</tspan></text>
<text transform="matrix(1 0 0 1 381.3438 57.5966)"><tspan x="0" y="0" class="st4 st5 st6 st7">T</tspan><tspan x="7.5" y="0" class="st4 st5 st6">otal</tspan></text>
<text transform="matrix(1 0 0 1 40.9883 103.9286)"><tspan x="0" y="0" class="st8 st9 st6">14 Ma</tspan><tspan x="31.5" y="0" class="st8 st9 st6">r</tspan><tspan x="35.8" y="0" class="st8 st9 st6">ch </tspan></text>
<text transform="matrix(1 0 0 1 40.9883 118.9286)" class="st8 st9 st6">2018</text>
<text transform="matrix(1 0 0 1 131.9839 103.9286)"><tspan x="0" y="0" class="st8 st9 st6">Stra</tspan><tspan x="23" y="0" class="st8 st9 st6">t</tspan><tspan x="27.2" y="0" class="st8 st9 st6">egi</tspan><tspan x="44" y="0" class="st8 st9 st6">e</tspan><tspan x="50.6" y="0" class="st8 st9 st6">s</tspan><tspan x="56.6" y="0" class="st8 st9 st6"> </tspan><tspan x="59.2" y="0" class="st8 st9 st6">for </tspan></text>
<text transform="matrix(1 0 0 1 131.9839 118.9286)" class="st8 st9 st6">engagement</text>
<text transform="matrix(1 0 0 1 252.1519 103.9286)"><tspan x="0" y="0" class="st8 st9 st6">2</tspan><tspan x="6.8" y="0" class="st8 st9 st6">98</tspan></text>
<text transform="matrix(1 0 0 1 340.9766 103.9286)" class="st8 st9 st6">312</text>
<text transform="matrix(1 0 0 1 391.4961 103.9286)" class="st8 st9 st6">610</text>
<text transform="matrix(1 0 0 1 40.9761 150.2607)" class="st8 st9 st6">3 July </text>
<text transform="matrix(1 0 0 1 76.2441 150.2607)" class="st8 st9 st6"> </text>
<text transform="matrix(1 0 0 1 40.9761 165.2607)" class="st8 st9 st6">2018</text>
<text transform="matrix(1 0 0 1 131.9722 150.2607)"><tspan x="0" y="0" class="st8 st9 st6">Cultu</tspan><tspan x="29.2" y="0" class="st8 st9 st6">r</tspan><tspan x="33.5" y="0" class="st8 st9 st6">e and </tspan></text>
<text transform="matrix(1 0 0 1 131.9722 165.2607)" class="st8 st9 st6">Ethics</text>
<text transform="matrix(1 0 0 1 251.8281 150.2607)" class="st8 st9 st6">345</text>
<text transform="matrix(1 0 0 1 337.5557 150.2607)"><tspan x="0" y="0" class="st8 st9 st6">4</tspan><tspan x="7.4" y="0" class="st8 st9 st6">7</tspan><tspan x="14" y="0" class="st8 st9 st6">6</tspan></text>
<text transform="matrix(1 0 0 1 392.4316 150.2607)"><tspan x="0" y="0" class="st8 st9 st6">8</tspan><tspan x="7.6" y="0" class="st8 st9 st6">2</tspan><tspan x="14.4" y="0" class="st8 st9 st6">1</tspan></text>
<text transform="matrix(1 0 0 1 40.9639 196.5927)"><tspan x="0" y="0" class="st8 st9 st6">1</tspan><tspan x="3.9" y="0" class="st8 st9 st6">4</tspan><tspan x="11.4" y="0" class="st8 st9 st6"> </tspan><tspan x="13.5" y="0" class="st8 st9 st6">N</tspan><tspan x="22.2" y="0" class="st8 st9 st6">ov</tspan><tspan x="34.6" y="0" class="st8 st9 st6">em</tspan><tspan x="51.3" y="0" class="st8 st9 st6">b</tspan><tspan x="58.4" y="0" class="st8 st9 st6">e</tspan><tspan x="64.7" y="0" class="st8 st9 st6">r </tspan></text>
<text transform="matrix(1 0 0 1 40.9639 211.5927)" class="st8 st9 st6">2018</text>
<text transform="matrix(1 0 0 1 131.96 196.5927)"><tspan x="0" y="0" class="st8 st9 st6">A </tspan><tspan x="10.9" y="0" class="st8 st9 st6">W</tspan><tspan x="21.9" y="0" class="st8 st9 st6">orld of </tspan></text>
<text transform="matrix(1 0 0 1 131.96 211.5927)" class="st8 st9 st6">Data</text>
<text transform="matrix(1 0 0 1 256.3999 196.5927)" class="st8 st9 st6">127</text>
<text transform="matrix(1 0 0 1 343.5801 196.5927)" class="st8 st9 st6">60</text>
<text transform="matrix(1 0 0 1 392.6846 196.5927)"><tspan x="0" y="0" class="st8 st9 st6">1</tspan><tspan x="4.1" y="0" class="st8 st9 st6">8</tspan><tspan x="11.5" y="0" class="st8 st9 st6">7</tspan></text>
</svg>
